<svg width="551" height="555" viewBox="0 0 551 555" fill="none" xmlns="http://www.w3.org/2000/svg">
<g clip-path="url(#clip0_328_2)">
<path d="M11.7663 274.179C11.7534 320.809 23.9376 366.341 47.1056 406.473L9.5506 543.592L149.875 506.799C188.687 527.927 232.173 538.999 276.364 539.002H276.48C422.361 539.002 541.112 420.294 541.174 274.387C541.202 203.685 513.693 137.201 463.713 87.1823C413.741 37.1678 347.281 9.60926 276.469 9.577C130.571 9.577 11.8287 128.278 11.7684 274.179" fill="url(#paint0_linear_328_2)"/>
<path d="M2.31633 274.093C2.30127 322.401 14.9221 369.561 38.9162 411.13L0.0145874 553.165L145.371 515.053C185.421 536.889 230.514 548.402 276.398 548.42H276.516C427.631 548.42 550.648 425.442 550.712 274.312C550.738 201.069 522.239 132.195 470.474 80.3846C418.702 28.5803 349.865 0.0301163 276.516 0C125.376 0 2.37656 122.96 2.31633 274.093ZM88.8813 403.971L83.4539 395.356C60.6387 359.079 48.5964 317.157 48.6137 274.11C48.661 148.493 150.893 46.293 276.603 46.293C337.48 46.3188 394.693 70.0505 437.725 113.108C480.754 156.17 504.432 213.413 504.417 274.295C504.361 399.912 402.127 502.124 276.516 502.124H276.426C235.526 502.103 195.413 491.119 160.431 470.362L152.106 465.426L65.8488 488.041L88.8813 403.971Z" fill="url(#paint1_linear_328_2)"/>
<path d="M207.985 159.504C202.852 148.097 197.45 147.867 192.569 147.667C188.572 147.495 184.003 147.507 179.439 147.507C174.87 147.507 167.446 149.226 161.171 156.078C154.89 162.936 137.19 179.508 137.19 213.215C137.19 246.921 161.741 279.498 165.163 284.074C168.59 288.641 212.56 360.025 282.197 387.487C340.072 410.309 351.85 405.77 364.411 404.625C376.973 403.485 404.947 388.057 410.654 372.059C416.365 356.063 416.365 342.351 414.653 339.486C412.941 336.631 408.372 334.917 401.52 331.492C394.669 328.067 360.984 311.491 354.705 309.204C348.423 306.919 343.856 305.779 339.287 312.639C334.718 319.489 321.598 334.917 317.599 339.486C313.604 344.066 309.605 344.636 302.756 341.209C295.9 337.771 273.836 330.546 247.658 307.208C227.291 289.047 213.541 266.622 209.544 259.762C205.547 252.912 209.116 249.199 212.551 245.785C215.63 242.716 219.405 237.785 222.834 233.786C226.25 229.785 227.39 226.931 229.675 222.361C231.961 217.788 230.817 213.787 229.107 210.36C227.39 206.933 214.077 173.05 207.985 159.504Z" fill="white"/>
</g>
<defs>
<linearGradient id="paint0_linear_328_2" x1="26590.7" y1="53411.1" x2="26590.7" y2="9.577" gradientUnits="userSpaceOnUse">
<stop stop-color="#1FAF38"/>
<stop offset="1" stop-color="#60D669"/>
</linearGradient>
<linearGradient id="paint1_linear_328_2" x1="27534.9" y1="55316.5" x2="27534.9" y2="0" gradientUnits="userSpaceOnUse">
<stop stop-color="#F9F9F9"/>
<stop offset="1" stop-color="white"/>
</linearGradient>
<clipPath id="clip0_328_2">
<rect width="550.727" height="555" fill="white"/>
</clipPath>
</defs>
</svg>
