<svg width="60" height="60" viewBox="0 0 60 60" fill="none" xmlns="http://www.w3.org/2000/svg">
<path d="M58.0356 13.144C55.9421 14.0536 53.727 14.6529 51.4604 14.9229C53.8424 13.5281 55.6338 11.3122 56.4985 8.6907C54.2464 10.0076 51.7866 10.9316 49.2245 11.4231C48.1456 10.2924 46.848 9.39288 45.4106 8.77924C43.9733 8.1656 42.4261 7.85065 40.8633 7.85354C34.5357 7.85354 29.415 12.8998 29.415 19.1204C29.4106 19.9856 29.5097 20.8483 29.7104 21.69C25.173 21.4773 20.7301 20.3198 16.6657 18.2917C12.6013 16.2635 9.00505 13.4092 6.10696 9.91157C5.09024 11.6256 4.55255 13.5812 4.55007 15.5741C4.55007 19.4808 6.58833 22.9341 9.66608 24.9573C7.8426 24.914 6.05649 24.4314 4.45938 23.5504V23.6899C4.45938 29.1547 8.41266 33.701 13.6449 34.7358C12.661 34.9981 11.6471 35.131 10.6288 35.1312C9.90627 35.1324 9.18537 35.0623 8.47661 34.9219C9.93118 39.3984 14.1647 42.654 19.1795 42.7471C15.1046 45.8875 10.1017 47.5849 4.95702 47.5724C4.04384 47.571 3.1315 47.5167 2.22461 47.4096C7.45826 50.7515 13.542 52.5193 19.7516 52.5024C40.8389 52.5024 52.3592 35.3288 52.3592 20.4343C52.3592 19.9459 52.3464 19.4576 52.3231 18.9809C54.5592 17.3903 56.4936 15.4137 58.0356 13.144Z" fill="black"/>
</svg>
